Coordinates
version=1
nRows=21
nColumns=33
inDegrees=yes

Units are S.I. units (second, meters, Newtons, ...)
Angles are in degrees.

endheader
time	ground_thorax_rot_x	ground_thorax_rot_y	ground_thorax_rot_z	ground_thorax_tx	ground_thorax_ty	ground_thorax_tz	clav_prot_r	clav_elev_r	scapula_abduction_r	scapula_elevation_r	scapula_upward_rot_r	scapula_winging_r	shoulder_elv_r	plane_of_elev_r	axial_rot_r	elbow_flexion_r	pro_sup_r	wrist_flex_r	wrist_dev_r	clav_prot_l	clav_elev_l	scapula_abduction_l	scapula_elevation_l	scapula_upward_rot_l	scapula_winging_l	shoulder_elv_l	plane_of_elev_l	axial_rot_l	elbow_flexion_l	pro_sup_l	wrist_flex_l	wrist_dev_l
      8.88000000	    -16.79183705	    -39.63422642	     60.39034311	     32.06024578	    790.05114125	    -35.44448250	     45.00000000	    -45.00000000	     38.89890753	    -45.00000000	    -38.16592796	   2514.39594423	   -825.53658576	    -90.00000000	     22.42838278	   3220.56208183	   -233.37651514	     11.45371529	      9.03216994	     -2.20012995	     31.82627050	    -27.51054637	    -45.00000000	    -45.00000000	   4405.82846852	  -3883.77534523	     25.98481877	     44.52269573	     -9.91527049	     51.13792987	     12.17648993	    -15.40481484
      8.89000000	    -16.27679645	    -39.81541956	     61.24897430	     34.12946887	    788.04042566	    -35.06058199	     45.00000000	    -45.00000000	     38.54457091	    -45.00000000	    -38.96616311	   2514.55715937	   -825.61326731	    -90.00000000	     22.51991328	   3220.75354369	   -233.01658156	     11.47862567	      8.98546008	     -2.37509553	     31.80629040	    -27.19379241	    -45.00000000	    -45.00000000	   4405.73473904	  -3883.81254310	     25.83681098	     43.80536457	     -9.90360241	     51.15244877	     12.10689853	    -15.24753084
      8.90000000	    -15.70807266	    -40.00984060	     62.15484409	     36.11535232	    786.02596322	    -34.65906187	     45.00000000	    -45.00000000	     38.51114175	    -45.00000000	    -39.89009132	   2514.59817341	   -825.75192600	    -90.00000000	     22.67428945	   3220.84388536	   -232.73744371	     11.40330598	      9.01657262	     -2.48711836	     31.81057776	    -26.95998816	    -45.00000000	    -45.00000000	   4405.88754856	  -3884.00703555	     25.75061366	     43.17046951	     -9.90944534	     51.12560908	     12.12911738	    -15.22698064
      8.91000000	    -15.30800575	    -40.14685367	     62.85344213	     38.01955957	    784.01453077	    -34.24386020	     45.00000000	    -45.00000000	     38.29737069	    -45.00000000	    -40.67290871	   2514.72382599	   -825.89769966	    -90.00000000	     22.83650306	   3220.98890557	   -232.59119956	     11.41756138	      9.01983009	     -2.63573743	     31.76971493	    -26.73870806	    -45.00000000	    -45.00000000	   4405.86940187	  -3884.14368077	     25.59292998	     42.50693334	     -9.83069902	     51.06947105	     12.11042985	    -15.15876468
      8.92000000	    -14.84381955	    -40.27994601	     63.66154242	     39.83574957	    782.02106217	    -33.82195548	     45.00000000	    -45.00000000	     38.05224517	    -45.00000000	    -41.51565020	   2514.79131073	   -825.99768011	    -90.00000000	     22.95221572	   3221.18584514	   -232.59215820	     11.47868856	      8.99062577	     -2.77374880	     31.75102259	    -26.43540051	    -45.00000000	    -45.00000000	   4405.80251437	  -3884.16580943	     25.45775715	     41.81529682	     -9.83609288	     51.00282719	     12.06927847	    -15.02983946
      8.93000000	    -14.41148435	    -40.42094397	     64.41927926	     41.56041920	    780.06039109	    -33.40029095	     45.00000000	    -45.00000000	     37.82974531	    -45.00000000	    -42.29226585	   2514.86104662	   -826.11891601	    -90.00000000	     23.08896839	   3221.38043467	   -232.69849312	     11.48044469	      8.97451594	     -2.92772169	     31.74076604	    -26.13972532	    -45.00000000	    -45.00000000	   4405.80239248	  -3884.21537386	     25.36482816	     41.12506844	     -9.85405469	     50.89670567	     12.07183739	    -14.94231826
      8.94000000	    -14.00617211	    -40.55202231	     65.16560193	     43.19101914	    778.14794063	    -32.98619499	     45.00000000	    -45.00000000	     37.52620989	    -45.00000000	    -43.05030755	   2514.93745283	   -826.23685712	    -90.00000000	     23.22188472	   3221.60762069	   -232.91604995	     11.56937647	      8.92419079	     -3.05176685	     31.71799926	    -25.81603244	    -45.00000000	    -45.00000000	   4405.74330015	  -3884.20040070	     25.23173362	     40.42631515	     -9.86240811	     50.75937886	     12.04278372	    -14.81375750
      8.95000000	    -13.63853419	    -40.67915938	     65.80842546	     44.72203134	    776.30834727	    -32.58803987	     45.00000000	    -45.00000000	     37.43981812	    -45.00000000	    -43.79761753	   2515.01043244	   -826.39680749	    -90.00000000	     23.39726939	   3221.74445153	   -233.20134154	     11.49782359	      8.92338097	     -3.16865700	     31.73025774	    -25.60199480	    -45.00000000	    -45.00000000	   4405.85368165	  -3884.32503950	     25.16433325	     39.80881008	     -9.86257027	     50.56741163	     12.07554094	    -14.77563023
      8.96000000	    -13.33795264	    -40.76739996	     66.37474927	     46.15977574	    774.55219108	    -32.21025919	     45.00000000	    -45.00000000	     37.25831453	    -45.00000000	    -44.51544131	   2515.05967330	   -826.51033602	    -90.00000000	     23.52615960	   3221.86798999	   -233.58075639	     11.65171727	      8.88748843	     -3.27661080	     31.69846954	    -25.39993128	    -45.00000000	    -45.00000000	   4405.80404023	  -3884.34806121	     24.97346596	     39.17449424	     -9.83558356	     50.35047206	     12.06051767	    -14.67989624
      8.97000000	    -13.17188632	    -40.81348332	     66.69179730	     47.50504037	    772.89749911	    -31.85866328	     45.00000000	    -45.00000000	     37.24788512	    -45.00000000	    -44.70348547	   2515.06011838	   -826.71985618	    -90.00000000	     23.75095968	   3222.00877331	   -233.97528916	     11.60799223	      8.85182565	     -3.36295928	     31.70198673	    -25.16064291	    -45.00000000	    -45.00000000	   4405.82418651	  -3884.46286034	     24.99917621	     38.63876085	     -9.82982240	     50.10319317	     12.08826495	    -14.62899316
      8.98000000	    -13.12943816	    -40.79853400	     66.84838379	     48.75948451	    771.35451730	    -31.53616249	     45.00000000	    -45.00000000	     37.21674015	    -45.00000000	    -44.87783302	   2515.04408993	   -826.92716401	    -90.00000000	     23.97375871	   3222.09692297	   -234.40209930	     11.74382940	      8.81539027	     -3.36156387	     31.64160408	    -25.04145221	    -45.00000000	    -45.00000000	   4405.71113963	  -3884.51541692	     24.83711303	     38.28914243	     -9.79816552	     49.82477452	     12.09360150	    -14.56902022
      8.99000000	    -13.18510250	    -40.77599267	     66.87299020	     49.92590211	    769.92776478	    -31.24478637	     45.00000000	    -45.00000000	     37.18440374	    -45.00000000	    -44.90880746	   2515.07489308	   -827.13100287	    -90.00000000	     24.19314126	   3222.18486907	   -234.80862856	     11.74216530	      8.78102792	     -3.39669723	     31.63271594	    -24.89464462	    -45.00000000	    -45.00000000	   4405.68578047	  -3884.59730421	     24.86589396	     38.00803205	     -9.77106298	     49.53283427	     12.08854673	    -14.50458066
      9.00000000	    -13.19538400	    -40.80715018	     66.97348362	     51.00093063	    768.62002540	    -30.98575644	     45.00000000	    -45.00000000	     37.10015988	    -45.00000000	    -45.00000000	   2515.12085720	   -827.30684058	    -90.00000000	     24.38386797	   3222.29725972	   -235.20131361	     11.87086405	      8.70196089	     -3.36339279	     31.57176804	    -24.71878308	    -45.00000000	    -45.00000000	   4405.52357332	  -3884.53501641	     24.71559315	     37.68491262	     -9.77659482	     49.24939848	     12.07496768	    -14.41781498
      9.01000000	    -13.27035180	    -40.78899853	     66.95454786	     51.98694348	    767.42380554	    -30.75853797	     45.00000000	    -45.00000000	     37.08618076	    -45.00000000	    -45.00000000	   2515.15056179	   -827.48893952	    -90.00000000	     24.58072888	   3222.38830926	   -235.54790149	     11.81021589	      8.65422755	     -3.41103052	     31.58307837	    -24.58342910	    -45.00000000	    -45.00000000	   4405.54716196	  -3884.64232162	     24.79277894	     37.46164148	     -9.79083334	     48.95537513	     12.08589317	    -14.36566982
      9.02000000	    -13.33251462	    -40.74763049	     67.01711630	     52.87988615	    766.33536286	    -30.56158964	     45.00000000	    -45.00000000	     37.05886855	    -45.00000000	    -45.00000000	   2515.05629878	   -827.60453491	    -90.00000000	     24.71147425	   3222.48393527	   -235.87501412	     11.90343395	      8.60073971	     -3.33795994	     31.52192297	    -24.53860965	    -45.00000000	    -45.00000000	   4405.41767399	  -3884.64492159	     24.63206457	     37.27425989	     -9.73924998	     48.63637089	     12.09549344	    -14.34796962
      9.03000000	    -13.46073332	    -40.73001443	     66.95785202	     53.68085334	    765.34617864	    -30.39180675	     45.00000000	    -45.00000000	     37.01411520	    -45.00000000	    -45.00000000	   2515.02925156	   -827.70751029	    -90.00000000	     24.83016698	   3222.52434316	   -236.14101587	     11.86840537	      8.56267017	     -3.39422518	     31.53405521	    -24.45056803	    -45.00000000	    -45.00000000	   4405.48878390	  -3884.73520059	     24.70695179	     37.14896138	     -9.69949405	     48.31062670	     12.09954226	    -14.31843816
      9.04000000	    -13.52833675	    -40.70506213	     66.96227197	     54.38856943	    764.44940782	    -30.24507690	     45.00000000	    -45.00000000	     36.94173165	    -45.00000000	    -45.00000000	   2515.06729451	   -827.82930646	    -90.00000000	     24.96682552	   3222.59717682	   -236.35128809	     11.98439272	      8.50573756	     -3.31988672	     31.47868129	    -24.33079493	    -45.00000000	    -45.00000000	   4405.30130933	  -3884.68862185	     24.56954879	     36.94021991	     -9.67607037	     47.99766360	     12.10142520	    -14.29029050
      9.05000000	    -13.72848643	    -40.66833543	     66.75202807	     55.00105749	    763.63965550	    -30.11703164	     45.00000000	    -45.00000000	     37.04692178	    -45.00000000	    -45.00000000	   2515.06738281	   -827.96475200	    -90.00000000	     25.11706093	   3222.55492343	   -236.48011595	     11.90542726	      8.51358369	     -3.37349317	     31.49415869	    -24.29495288	    -45.00000000	    -45.00000000	   4405.37023370	  -3884.80192381	     24.70247061	     36.90421764	     -9.71885639	     47.68284776	     12.13749616	    -14.26054582
      9.06000000	    -13.80397494	    -40.65513911	     66.81252825	     55.51467585	    762.91182819	    -30.00272049	     45.00000000	    -45.00000000	     36.92178039	    -45.00000000	    -45.00000000	   2515.03777570	   -828.06285591	    -90.00000000	     25.23042073	   3222.64546412	   -236.58498888	     11.93742029	      8.51761638	     -3.27139682	     31.45583616	    -24.25033470	    -45.00000000	    -45.00000000	   4405.24744075	  -3884.73807596	     24.52631024	     36.77723216	     -9.65962230	     47.33305626	     12.13874805	    -14.26421184
      9.07000000	    -14.01027922	    -40.63387154	     66.58856911	     55.92632988	    762.25950604	    -29.89788061	     45.00000000	    -45.00000000	     36.91888116	    -45.00000000	    -45.00000000	   2515.06795394	   -828.17657882	    -90.00000000	     25.35899353	   3222.59424966	   -236.61740704	     11.93449909	      8.49361497	     -3.36479751	     31.46008161	    -24.15493435	    -45.00000000	    -45.00000000	   4405.30090716	  -3884.81446455	     24.67204804	     36.71808811	     -9.64927997	     46.99523719	     12.15790901	    -14.24160519
      9.08000000	    -14.11397993	    -40.69848934	     66.57671503	     56.23173684	    761.67713615	    -29.79973250	     45.00000000	    -45.00000000	     36.81863985	    -45.00000000	    -45.00000000	   2515.13230596	   -828.35072543	    -90.00000000	     25.54716092	   3222.73730864	   -236.61721917	     11.87253969	      8.56064898	     -3.19708719	     31.44006235	    -24.08532650	    -45.00000000	    -45.00000000	   4405.15286769	  -3884.67018582	     24.41413461	     36.55965586	     -9.61791858	     46.65552834	     12.12689041	    -14.22786706
